<svg width="1875" height="820" viewBox="0 0 1875 820" fill="none" xmlns="http://www.w3.org/2000/svg">
<path d="M2.38419e-06 810V9.99999H330V110H80V360H310V460H80V810H2.38419e-06ZM365.391 410C365.391 324.667 374.391 251.333 392.391 190C410.391 128.667 436.057 81.6666 469.391 49C503.391 16.3333 543.724 -6.19888e-05 590.391 -6.19888e-05C637.057 -6.19888e-05 677.057 16.3333 710.391 49C744.391 81.6666 770.391 128.667 788.391 190C806.391 251.333 815.391 324.667 815.391 410C815.391 495.333 806.391 568.667 788.391 630C770.391 691.333 744.391 738.333 710.391 771C677.057 803.667 637.057 820 590.391 820C543.724 820 503.391 803.667 469.391 771C436.057 738.333 410.391 691.333 392.391 630C374.391 568.667 365.391 495.333 365.391 410ZM440.391 410C440.391 506.667 453.724 582.667 480.391 638C507.057 692.667 543.724 720 590.391 720C637.724 720 674.391 692.667 700.391 638C727.057 582.667 740.391 506.667 740.391 410C740.391 312.667 727.057 236.667 700.391 182C674.391 127.333 637.724 100 590.391 100C543.724 100 507.057 127.333 480.391 182C453.724 236.667 440.391 312.667 440.391 410ZM899.922 810V9.99999H1064.92C1134.92 9.99999 1188.26 29.3333 1224.92 68C1261.59 106 1279.92 160 1279.92 230C1279.92 322.667 1248.92 386.667 1186.92 422C1235.59 454.667 1259.92 510.667 1259.92 590V720C1259.92 750 1264.92 780 1274.92 810H1191.92C1187.26 794.667 1183.92 779.667 1181.92 765C1180.59 749.667 1179.92 734.667 1179.92 720V590C1179.92 510 1139.92 470 1059.92 470H979.922V810H899.922ZM1064.92 110H979.922V370H1064.92C1107.59 370 1141.59 359 1166.92 337C1192.26 315 1204.92 282.667 1204.92 240C1204.92 197.333 1192.26 165 1166.92 143C1141.59 121 1107.59 110 1064.92 110ZM1354.77 810V9.99999H1489.77L1597.77 550L1612.77 630H1616.77L1631.77 550L1739.77 9.99999H1874.77V810H1794.77V130H1789.77L1774.77 210L1654.77 810H1574.77L1454.77 210L1439.77 130H1434.77V810H1354.77Z" fill="#FE0100"/>
</svg>
